<?xml version="1.0" encoding="UTF-8" standalone="no"?>
<!DOCTYPE svg PUBLIC "-//W3C//DTD SVG 1.1//EN" "http://www.w3.org/Graphics/SVG/1.1/DTD/svg11.dtd">
<svg width="100%" height="100%" viewBox="0 0 759 500" version="1.1" xmlns="http://www.w3.org/2000/svg" xmlns:xlink="http://www.w3.org/1999/xlink" xml:space="preserve" xmlns:serif="http://www.serif.com/" style="fill-rule:evenodd;clip-rule:evenodd;stroke-linejoin:round;stroke-miterlimit:2;">
    <g transform="matrix(1,0,0,1,-716.385,-1118.39)">
        <g transform="matrix(1,0,0,1,104.496,89.981)">
            <path d="M909.776,1522.02L879.56,1522.02C859.342,1522.02 840.845,1520.3 820.823,1520.3C788.859,1520.3 665.254,1517.38 641.785,1518.76L642.345,1518.91C642.765,1518.91 613.529,1516.48 612.162,1515.09C608.751,1511.62 638.231,1495.95 647.564,1491.9C667.865,1483.08 669.732,1479.96 694.649,1473.65C694.988,1473.56 697.004,1473.88 697.234,1473.65C697.47,1473.41 697.234,1471.41 697.234,1471.05C697.234,1447.16 691.18,1422.83 691.18,1397.65C691.18,1383.51 683.863,1323.69 701.528,1305.23C704.135,1302.5 707.285,1300.68 711.083,1300.03C711.083,1300.03 701.16,1293.41 698.111,1290.53C694.278,1286.9 685.662,1284.12 682.554,1281.03C666.11,1264.71 694.997,1247.91 701.573,1241.28C702.242,1240.61 692.29,1194.65 696.071,1190.87C707.443,1179.5 742.284,1174.7 745.645,1173.03C746.017,1172.84 745.459,1173.4 745.645,1173.03C754.376,1155.63 740.572,1132.18 754.27,1118.58C759.665,1113.23 802.813,1140.07 805.273,1137.63C815.333,1127.65 830.352,1111.68 851.923,1111.68L852.74,1110.84C852.74,1083.83 842.487,1061.56 870.051,1048.62C872.794,1047.33 881.123,1044.68 884.717,1045.19C910.451,1048.81 912.373,1054.1 919.286,1077.99C921.049,1084.09 921.864,1107.82 921.864,1107.37C919.484,1102.74 935.337,1049.33 952.964,1058.11C970.14,1066.67 982.369,1092.65 982.369,1112.56L985.771,1110.84C982.039,1110.84 1010.01,1104.78 1010.01,1104.78C1010.01,1104.78 1241.85,1083.71 1245.85,1079.71C1246.27,1079.29 1246.27,1080.12 1245.85,1079.71C1233.19,1067.14 1256.35,1039.38 1262.71,1033.06C1281.58,1014.34 1308.27,1057.32 1314.38,1069.17C1321.21,1082.42 1337.09,1130.11 1323.6,1142.77C1320.58,1145.61 1314.91,1146.26 1312.33,1148.84C1309.56,1151.61 1307.72,1166.74 1302.01,1172.14C1291.16,1182.4 1275.19,1154.91 1275.19,1154.91C1275.19,1154.91 1250.72,1186.32 1249.32,1187.71C1245.45,1191.51 1221.7,1165.24 1219.9,1165.24C1218.65,1165.24 1218.4,1169.02 1218.22,1169.55C1216.52,1174.5 1204.55,1208.63 1198.31,1202.4C1194.7,1198.78 1173.75,1171.9 1171.56,1173.03C1165.53,1176.14 1161.9,1185.36 1158.58,1194.48C1155.22,1203.72 1152.19,1212.85 1147.32,1215.38C1145.35,1216.4 1140.47,1213.17 1135.11,1208.37C1125.4,1199.66 1112.81,1182.18 1112.81,1182.18C1110.57,1182.18 1087.59,1218.14 1084.3,1221.4C1083.28,1222.41 1080.7,1220.04 1079.95,1219.68C1065.45,1212.85 1048.89,1197.85 1041.92,1190.31C1040.85,1189.14 1038.62,1191.02 1038.46,1191.19C1029.53,1200.86 1020.42,1214.93 1011.71,1223.11C1009.68,1225.02 992.476,1199.5 990.995,1198.1C989.695,1196.86 987.024,1205.97 986.648,1206.71C983.048,1213.74 978.628,1222.82 971.098,1226.59C966.152,1229.06 939.63,1198.1 939.992,1198.1C929.499,1186.64 912.984,1222.69 910.66,1230.07C909.299,1234.38 907.198,1365.04 907.198,1388.99C907.198,1403.36 909.776,1418.78 909.776,1432.17C909.776,1437.24 910.564,1456.57 911.477,1454.65L914.123,1451.22C911.034,1451.22 910.008,1455.97 911.573,1454.4C915.672,1450.27 945.764,1422.88 952.08,1426.15C955.221,1427.78 974.341,1460.08 978.907,1465.03C980.149,1466.37 983.026,1462.76 983.186,1462.44C986.463,1455.91 1015.37,1428.71 1022.1,1432.17C1032.23,1437.4 1040.05,1458.17 1047.97,1466.74C1047.99,1466.76 1050.39,1470.45 1051.43,1469.33C1061.46,1458.56 1074.14,1444.35 1084.3,1433.93C1084.4,1433.83 1086.8,1433.85 1086.89,1433.93C1091.16,1437.92 1107.74,1463.18 1114.01,1466.24C1114.99,1466.72 1114.99,1466.72 1116.05,1466.51C1117.1,1465.6 1153.47,1430.28 1154.85,1430.93C1157.55,1432.2 1181.6,1461.86 1184.46,1458.95C1186.14,1457.25 1207.98,1428.89 1211.29,1432.17C1219.79,1440.61 1228.6,1453.95 1237.15,1462.44C1237.48,1462.76 1238.78,1463.85 1239.81,1463.31C1247,1459.59 1254.12,1431.9 1263.98,1436.53C1271.55,1440.09 1283.25,1463.31 1288.16,1463.31C1289.81,1463.31 1311.54,1429.62 1314.09,1427.03C1317.8,1423.26 1335.46,1437.5 1339.15,1439.95C1371.07,1461.17 1370.26,1467.27 1370.26,1505.61C1351.08,1505.61 1321.78,1505.2 1302.82,1511.68C1274.13,1521.5 1185.02,1504.68 1152.55,1515.11C1127.24,1523.24 1084.7,1508.18 1054.01,1516C1022.12,1524.13 986.902,1516.88 954.664,1516.88C943.626,1516.88 931.402,1515.11 920.163,1515.11C916.524,1515.11 905.142,1512.85 909.776,1515.11" style="fill:rgb(0,234,195);"/>
        </g>
        <g transform="matrix(1,0,0,1,104.496,89.981)">
            <path d="M862.557,1488.67C866.191,1488.9 871.602,1489.2 875.839,1489.3C883.352,1489.48 891.017,1489.94 896.162,1491.36C899.769,1492.35 902.489,1493.91 904.23,1495.65C907.13,1498.55 909.045,1502.38 910.221,1506.36C911.162,1509.54 911.881,1514.04 912.168,1515.99C912.966,1517.24 913.43,1518.72 913.43,1520.3C913.43,1524.72 909.845,1528.3 905.43,1528.3C902.745,1528.3 900.022,1527.3 898.075,1524.07C897.389,1522.93 896.615,1520.49 896.12,1517.21C895.69,1514.37 895.577,1509.93 893.179,1507.24C892.661,1507.08 890.468,1506.41 888.862,1506.17C883.32,1505.35 876.106,1505.31 869.739,1505.17C863.923,1505.05 858.712,1504.81 855.487,1504.13C852.357,1503.47 850.227,1502.21 849.002,1501.05C848.7,1500.76 846.442,1498.61 846.434,1494.14C846.426,1489.88 847.175,1474.35 847.127,1463.95C847.113,1460.97 846.863,1457.46 846.822,1456.92C842.252,1443.62 833.41,1426.84 818.628,1421.28C809.127,1417.71 797.395,1419.43 782.955,1429.29C779.308,1431.77 774.326,1430.83 771.837,1427.19C769.349,1423.54 770.289,1418.56 773.936,1416.07C794.182,1402.25 810.937,1401.3 824.257,1406.31C843.59,1413.57 856.183,1434.76 862.075,1452.07C862.632,1453.71 863.1,1458.18 863.126,1463.87C863.162,1471.54 862.766,1481.99 862.557,1488.67ZM907.551,1512.59C906.867,1512.39 906.158,1512.3 905.43,1512.3C906.164,1512.3 906.875,1512.4 907.551,1512.59Z" style="fill:rgb(35,31,32);"/>
        </g>
        <g transform="matrix(1,0,0,1,104.496,89.981)">
            <path d="M879.254,1079.41C880.967,1082.1 890.561,1097.15 895.806,1104.98C897.057,1106.85 898.332,1108.7 899.006,1109.66C899.566,1110.23 900.051,1110.89 900.433,1111.64C902.995,1116.65 900.126,1119.89 899.771,1120.36C898.157,1122.48 895.917,1123.73 892.788,1123.49C891.873,1123.42 890.101,1123.23 888.17,1121.58C887.921,1121.37 886.662,1119.99 885.016,1117.59C880.039,1110.34 866.559,1089.65 864.899,1086.57C861.212,1079.75 867.63,1075.52 868.307,1075.19C869.33,1074.7 873.406,1072.69 877.509,1076.79C878.282,1077.57 878.864,1078.46 879.254,1079.41ZM885.389,1116.41C885.471,1117.1 885.69,1117.95 886.19,1118.93C885.774,1118.12 885.51,1117.27 885.389,1116.41ZM871.819,1090.45C869.782,1090.44 867.748,1089.66 866.196,1088.11C868.336,1090.25 870.459,1090.52 871.819,1090.45Z" style="fill:rgb(35,31,32);"/>
        </g>
        <g transform="matrix(1,0,0,1,104.496,89.981)">
            <path d="M945.11,1084.29C945.979,1079.96 950.2,1077.15 954.529,1078.03C958.857,1078.89 961.666,1083.12 960.796,1087.44L954.253,1120.02C953.384,1124.35 949.163,1127.15 944.834,1126.29C940.505,1125.41 937.697,1121.19 938.566,1116.87L945.11,1084.29Z" style="fill:rgb(35,31,32);"/>
        </g>
    </g>
</svg>
